<mxfile host="Electron" agent="Mozilla/5.0 (Windows NT 10.0; Win64; x64) AppleWebKit/537.36 (KHTML, like Gecko) draw.io/26.0.16 Chrome/132.0.6834.196 Electron/34.2.0 Safari/537.36" version="26.0.16">
  <diagram name="1 oldal" id="ozqdmFruul4j5zL6X9_F">
    <mxGraphModel dx="1395" dy="703" grid="1" gridSize="10" guides="1" tooltips="1" connect="1" arrows="1" fold="1" page="1" pageScale="1" pageWidth="827" pageHeight="1169" math="0" shadow="0">
      <root>
        <mxCell id="0" />
        <mxCell id="1" parent="0" />
        <mxCell id="5CBGArM91QVwlpxLiniN-25" value="" style="endArrow=ERzeroToMany;startArrow=ERmandOne;html=1;rounded=0;exitX=0;exitY=0.5;exitDx=0;exitDy=0;entryX=1;entryY=0.5;entryDx=0;entryDy=0;" parent="1" edge="1">
          <mxGeometry width="50" height="50" relative="1" as="geometry">
            <mxPoint x="480" y="90" as="sourcePoint" />
            <mxPoint x="360" y="90" as="targetPoint" />
            <Array as="points" />
          </mxGeometry>
        </mxCell>
        <mxCell id="t_jVDYr7bIxkMFcBrNz5-1" value="Users" style="whiteSpace=wrap;html=1;align=center;" vertex="1" parent="1">
          <mxGeometry x="280" y="240" width="80" height="40" as="geometry" />
        </mxCell>
        <mxCell id="t_jVDYr7bIxkMFcBrNz5-3" value="id" style="ellipse;whiteSpace=wrap;html=1;align=center;fontStyle=4;" vertex="1" parent="1">
          <mxGeometry x="420" y="120" width="30" height="20" as="geometry" />
        </mxCell>
        <mxCell id="t_jVDYr7bIxkMFcBrNz5-4" value="email" style="ellipse;whiteSpace=wrap;html=1;align=center;" vertex="1" parent="1">
          <mxGeometry x="420" y="150" width="40" height="20" as="geometry" />
        </mxCell>
        <mxCell id="t_jVDYr7bIxkMFcBrNz5-5" value="name" style="ellipse;whiteSpace=wrap;html=1;align=center;" vertex="1" parent="1">
          <mxGeometry x="420" y="180" width="40" height="20" as="geometry" />
        </mxCell>
        <mxCell id="t_jVDYr7bIxkMFcBrNz5-6" value="birthday" style="ellipse;whiteSpace=wrap;html=1;align=center;" vertex="1" parent="1">
          <mxGeometry x="420" y="210" width="60" height="20" as="geometry" />
        </mxCell>
        <mxCell id="t_jVDYr7bIxkMFcBrNz5-7" value="password" style="ellipse;whiteSpace=wrap;html=1;align=center;" vertex="1" parent="1">
          <mxGeometry x="420" y="240" width="60" height="20" as="geometry" />
        </mxCell>
        <mxCell id="t_jVDYr7bIxkMFcBrNz5-8" value="work/school" style="ellipse;whiteSpace=wrap;html=1;align=center;" vertex="1" parent="1">
          <mxGeometry x="420" y="295" width="70" height="20" as="geometry" />
        </mxCell>
        <mxCell id="t_jVDYr7bIxkMFcBrNz5-9" value="profil pic" style="ellipse;whiteSpace=wrap;html=1;align=center;" vertex="1" parent="1">
          <mxGeometry x="420" y="320" width="60" height="20" as="geometry" />
        </mxCell>
        <mxCell id="t_jVDYr7bIxkMFcBrNz5-10" value="reg date" style="ellipse;whiteSpace=wrap;html=1;align=center;" vertex="1" parent="1">
          <mxGeometry x="420" y="345" width="50" height="20" as="geometry" />
        </mxCell>
        <mxCell id="t_jVDYr7bIxkMFcBrNz5-11" value="" style="endArrow=none;html=1;rounded=0;entryX=0;entryY=0.5;entryDx=0;entryDy=0;exitX=1;exitY=0.5;exitDx=0;exitDy=0;" edge="1" parent="1" source="t_jVDYr7bIxkMFcBrNz5-1" target="t_jVDYr7bIxkMFcBrNz5-3">
          <mxGeometry relative="1" as="geometry">
            <mxPoint x="180" y="339.66" as="sourcePoint" />
            <mxPoint x="340" y="339.66" as="targetPoint" />
            <Array as="points">
              <mxPoint x="400" y="260" />
            </Array>
          </mxGeometry>
        </mxCell>
        <mxCell id="t_jVDYr7bIxkMFcBrNz5-12" value="" style="endArrow=none;html=1;rounded=0;entryX=0;entryY=0.5;entryDx=0;entryDy=0;exitX=1;exitY=0.5;exitDx=0;exitDy=0;" edge="1" parent="1" source="t_jVDYr7bIxkMFcBrNz5-1" target="t_jVDYr7bIxkMFcBrNz5-4">
          <mxGeometry relative="1" as="geometry">
            <mxPoint x="370" y="270" as="sourcePoint" />
            <mxPoint x="450" y="170" as="targetPoint" />
            <Array as="points">
              <mxPoint x="400" y="260" />
            </Array>
          </mxGeometry>
        </mxCell>
        <mxCell id="t_jVDYr7bIxkMFcBrNz5-13" value="" style="endArrow=none;html=1;rounded=0;entryX=0;entryY=0.5;entryDx=0;entryDy=0;exitX=1;exitY=0.5;exitDx=0;exitDy=0;" edge="1" parent="1" source="t_jVDYr7bIxkMFcBrNz5-1" target="t_jVDYr7bIxkMFcBrNz5-5">
          <mxGeometry relative="1" as="geometry">
            <mxPoint x="380" y="280" as="sourcePoint" />
            <mxPoint x="460" y="180" as="targetPoint" />
            <Array as="points">
              <mxPoint x="400" y="260" />
            </Array>
          </mxGeometry>
        </mxCell>
        <mxCell id="t_jVDYr7bIxkMFcBrNz5-14" value="" style="endArrow=none;html=1;rounded=0;entryX=0;entryY=0.5;entryDx=0;entryDy=0;" edge="1" parent="1" target="t_jVDYr7bIxkMFcBrNz5-6">
          <mxGeometry relative="1" as="geometry">
            <mxPoint x="360" y="260" as="sourcePoint" />
            <mxPoint x="470" y="190" as="targetPoint" />
            <Array as="points">
              <mxPoint x="400" y="260" />
            </Array>
          </mxGeometry>
        </mxCell>
        <mxCell id="t_jVDYr7bIxkMFcBrNz5-15" value="" style="endArrow=none;html=1;rounded=0;entryX=0;entryY=0.5;entryDx=0;entryDy=0;" edge="1" parent="1" target="t_jVDYr7bIxkMFcBrNz5-7">
          <mxGeometry relative="1" as="geometry">
            <mxPoint x="360" y="260" as="sourcePoint" />
            <mxPoint x="480" y="200" as="targetPoint" />
            <Array as="points">
              <mxPoint x="400" y="260" />
            </Array>
          </mxGeometry>
        </mxCell>
        <mxCell id="t_jVDYr7bIxkMFcBrNz5-16" value="" style="endArrow=none;html=1;rounded=0;entryX=0;entryY=0.5;entryDx=0;entryDy=0;exitX=1;exitY=0.5;exitDx=0;exitDy=0;" edge="1" parent="1" source="t_jVDYr7bIxkMFcBrNz5-1" target="t_jVDYr7bIxkMFcBrNz5-8">
          <mxGeometry relative="1" as="geometry">
            <mxPoint x="410" y="310" as="sourcePoint" />
            <mxPoint x="490" y="210" as="targetPoint" />
            <Array as="points">
              <mxPoint x="400" y="260" />
            </Array>
          </mxGeometry>
        </mxCell>
        <mxCell id="t_jVDYr7bIxkMFcBrNz5-17" value="" style="endArrow=none;html=1;rounded=0;entryX=0;entryY=0.5;entryDx=0;entryDy=0;exitX=1;exitY=0.5;exitDx=0;exitDy=0;" edge="1" parent="1" source="t_jVDYr7bIxkMFcBrNz5-1" target="t_jVDYr7bIxkMFcBrNz5-9">
          <mxGeometry relative="1" as="geometry">
            <mxPoint x="420" y="320" as="sourcePoint" />
            <mxPoint x="500" y="220" as="targetPoint" />
            <Array as="points">
              <mxPoint x="400" y="260" />
            </Array>
          </mxGeometry>
        </mxCell>
        <mxCell id="t_jVDYr7bIxkMFcBrNz5-18" value="" style="endArrow=none;html=1;rounded=0;entryX=0;entryY=0.5;entryDx=0;entryDy=0;" edge="1" parent="1" target="t_jVDYr7bIxkMFcBrNz5-10">
          <mxGeometry relative="1" as="geometry">
            <mxPoint x="360" y="260" as="sourcePoint" />
            <mxPoint x="510" y="230" as="targetPoint" />
            <Array as="points">
              <mxPoint x="400" y="260" />
            </Array>
          </mxGeometry>
        </mxCell>
        <mxCell id="t_jVDYr7bIxkMFcBrNz5-19" value="Friend Request" style="shape=rhombus;perimeter=rhombusPerimeter;whiteSpace=wrap;html=1;align=center;" vertex="1" parent="1">
          <mxGeometry x="200" y="155" width="80" height="50" as="geometry" />
        </mxCell>
        <mxCell id="t_jVDYr7bIxkMFcBrNz5-20" style="edgeStyle=orthogonalEdgeStyle;rounded=0;orthogonalLoop=1;jettySize=auto;html=1;entryX=1;entryY=0.5;entryDx=0;entryDy=0;endArrow=none;endFill=0;startArrow=none;startFill=0;exitX=0.25;exitY=0;exitDx=0;exitDy=0;" edge="1" parent="1" source="t_jVDYr7bIxkMFcBrNz5-1" target="t_jVDYr7bIxkMFcBrNz5-19">
          <mxGeometry relative="1" as="geometry">
            <Array as="points">
              <mxPoint x="300" y="180" />
            </Array>
            <mxPoint x="227.97000000000003" y="395" as="sourcePoint" />
            <mxPoint x="140.97000000000003" y="190" as="targetPoint" />
          </mxGeometry>
        </mxCell>
        <mxCell id="t_jVDYr7bIxkMFcBrNz5-21" value="accepted?" style="ellipse;whiteSpace=wrap;html=1;align=center;" vertex="1" parent="1">
          <mxGeometry x="100" y="140" width="70" height="20" as="geometry" />
        </mxCell>
        <mxCell id="t_jVDYr7bIxkMFcBrNz5-22" value="" style="endArrow=none;html=1;rounded=0;exitX=0;exitY=0.5;exitDx=0;exitDy=0;entryX=1;entryY=0.5;entryDx=0;entryDy=0;" edge="1" parent="1" source="t_jVDYr7bIxkMFcBrNz5-19" target="t_jVDYr7bIxkMFcBrNz5-21">
          <mxGeometry relative="1" as="geometry">
            <mxPoint x="240" y="150" as="sourcePoint" />
            <mxPoint x="300" y="50" as="targetPoint" />
            <Array as="points">
              <mxPoint x="180" y="180" />
            </Array>
          </mxGeometry>
        </mxCell>
        <mxCell id="t_jVDYr7bIxkMFcBrNz5-23" value="sender" style="ellipse;whiteSpace=wrap;html=1;align=center;fontStyle=4;" vertex="1" parent="1">
          <mxGeometry x="100" y="170" width="70" height="20" as="geometry" />
        </mxCell>
        <mxCell id="t_jVDYr7bIxkMFcBrNz5-24" value="" style="endArrow=none;html=1;rounded=0;exitX=0;exitY=0.5;exitDx=0;exitDy=0;entryX=1;entryY=0.5;entryDx=0;entryDy=0;" edge="1" parent="1" target="t_jVDYr7bIxkMFcBrNz5-23" source="t_jVDYr7bIxkMFcBrNz5-19">
          <mxGeometry relative="1" as="geometry">
            <mxPoint x="200" y="210" as="sourcePoint" />
            <mxPoint x="300" y="80" as="targetPoint" />
            <Array as="points" />
          </mxGeometry>
        </mxCell>
        <mxCell id="t_jVDYr7bIxkMFcBrNz5-25" value="receiver" style="ellipse;whiteSpace=wrap;html=1;align=center;fontStyle=4;" vertex="1" parent="1">
          <mxGeometry x="100" y="200" width="70" height="20" as="geometry" />
        </mxCell>
        <mxCell id="t_jVDYr7bIxkMFcBrNz5-26" value="" style="endArrow=none;html=1;rounded=0;exitX=0;exitY=0.5;exitDx=0;exitDy=0;entryX=1;entryY=0.5;entryDx=0;entryDy=0;" edge="1" parent="1" target="t_jVDYr7bIxkMFcBrNz5-25" source="t_jVDYr7bIxkMFcBrNz5-19">
          <mxGeometry relative="1" as="geometry">
            <mxPoint x="200" y="240" as="sourcePoint" />
            <mxPoint x="300" y="110" as="targetPoint" />
            <Array as="points">
              <mxPoint x="190" y="180" />
              <mxPoint x="180" y="180" />
            </Array>
          </mxGeometry>
        </mxCell>
        <mxCell id="t_jVDYr7bIxkMFcBrNz5-28" style="edgeStyle=orthogonalEdgeStyle;rounded=0;orthogonalLoop=1;jettySize=auto;html=1;endArrow=none;endFill=0;startArrow=none;startFill=0;exitX=0.5;exitY=1;exitDx=0;exitDy=0;" edge="1" parent="1" source="t_jVDYr7bIxkMFcBrNz5-19">
          <mxGeometry relative="1" as="geometry">
            <Array as="points">
              <mxPoint x="240" y="250" />
              <mxPoint x="280" y="250" />
            </Array>
            <mxPoint x="200" y="240" as="sourcePoint" />
            <mxPoint x="280" y="250" as="targetPoint" />
          </mxGeometry>
        </mxCell>
        <mxCell id="t_jVDYr7bIxkMFcBrNz5-30" value="(1,2)" style="text;strokeColor=none;fillColor=none;spacingLeft=4;spacingRight=4;overflow=hidden;rotatable=0;points=[[0,0.5],[1,0.5]];portConstraint=eastwest;fontSize=12;whiteSpace=wrap;html=1;" vertex="1" parent="1">
          <mxGeometry x="280" y="155" width="40" height="30" as="geometry" />
        </mxCell>
        <mxCell id="t_jVDYr7bIxkMFcBrNz5-31" value="(1,N)" style="text;strokeColor=none;fillColor=none;spacingLeft=4;spacingRight=4;overflow=hidden;rotatable=0;points=[[0,0.5],[1,0.5]];portConstraint=eastwest;fontSize=12;whiteSpace=wrap;html=1;" vertex="1" parent="1">
          <mxGeometry x="205" y="205" width="70" height="30" as="geometry" />
        </mxCell>
        <mxCell id="t_jVDYr7bIxkMFcBrNz5-33" value="Messages" style="whiteSpace=wrap;html=1;align=center;" vertex="1" parent="1">
          <mxGeometry x="280" y="400" width="80" height="40" as="geometry" />
        </mxCell>
        <mxCell id="t_jVDYr7bIxkMFcBrNz5-34" value="who" style="ellipse;whiteSpace=wrap;html=1;align=center;" vertex="1" parent="1">
          <mxGeometry x="360" y="460" width="40" height="20" as="geometry" />
        </mxCell>
        <mxCell id="t_jVDYr7bIxkMFcBrNz5-38" value="id" style="ellipse;whiteSpace=wrap;html=1;align=center;fontStyle=4;" vertex="1" parent="1">
          <mxGeometry x="255" y="460" width="25" height="20" as="geometry" />
        </mxCell>
        <mxCell id="t_jVDYr7bIxkMFcBrNz5-40" value="when" style="ellipse;whiteSpace=wrap;html=1;align=center;" vertex="1" parent="1">
          <mxGeometry x="210" y="460" width="40" height="20" as="geometry" />
        </mxCell>
        <mxCell id="t_jVDYr7bIxkMFcBrNz5-41" value="" style="endArrow=none;html=1;rounded=0;entryX=0.5;entryY=0;entryDx=0;entryDy=0;exitX=0.5;exitY=1;exitDx=0;exitDy=0;" edge="1" parent="1" target="t_jVDYr7bIxkMFcBrNz5-40" source="t_jVDYr7bIxkMFcBrNz5-33">
          <mxGeometry relative="1" as="geometry">
            <mxPoint x="360" y="450" as="sourcePoint" />
            <mxPoint x="410" y="480" as="targetPoint" />
            <Array as="points">
              <mxPoint x="320" y="450" />
            </Array>
          </mxGeometry>
        </mxCell>
        <mxCell id="t_jVDYr7bIxkMFcBrNz5-42" value="content" style="ellipse;whiteSpace=wrap;html=1;align=center;" vertex="1" parent="1">
          <mxGeometry x="150" y="460" width="50" height="20" as="geometry" />
        </mxCell>
        <mxCell id="t_jVDYr7bIxkMFcBrNz5-45" style="edgeStyle=orthogonalEdgeStyle;rounded=0;orthogonalLoop=1;jettySize=auto;html=1;exitX=0.5;exitY=1;exitDx=0;exitDy=0;entryX=0.5;entryY=0;entryDx=0;entryDy=0;endArrow=ERzeroToMany;endFill=0;startArrow=ERmandOne;startFill=0;" edge="1" parent="1" source="t_jVDYr7bIxkMFcBrNz5-1">
          <mxGeometry relative="1" as="geometry">
            <mxPoint x="319.58" y="310" as="sourcePoint" />
            <mxPoint x="319.58" y="400" as="targetPoint" />
            <Array as="points">
              <mxPoint x="320" y="350" />
            </Array>
          </mxGeometry>
        </mxCell>
        <mxCell id="t_jVDYr7bIxkMFcBrNz5-46" value="Interests" style="whiteSpace=wrap;html=1;align=center;" vertex="1" parent="1">
          <mxGeometry x="40" y="321.25" width="80" height="37.5" as="geometry" />
        </mxCell>
        <mxCell id="t_jVDYr7bIxkMFcBrNz5-47" value="User Interest" style="shape=rhombus;perimeter=rhombusPerimeter;whiteSpace=wrap;html=1;align=center;" vertex="1" parent="1">
          <mxGeometry x="160" y="315" width="90" height="45" as="geometry" />
        </mxCell>
        <mxCell id="t_jVDYr7bIxkMFcBrNz5-48" style="edgeStyle=orthogonalEdgeStyle;rounded=0;orthogonalLoop=1;jettySize=auto;html=1;entryX=0.25;entryY=1;entryDx=0;entryDy=0;endArrow=none;endFill=0;startArrow=none;startFill=0;exitX=1;exitY=0.5;exitDx=0;exitDy=0;" edge="1" parent="1" source="t_jVDYr7bIxkMFcBrNz5-47" target="t_jVDYr7bIxkMFcBrNz5-1">
          <mxGeometry relative="1" as="geometry">
            <Array as="points">
              <mxPoint x="300" y="338" />
            </Array>
            <mxPoint x="280" y="375" as="sourcePoint" />
            <mxPoint x="260" y="315" as="targetPoint" />
          </mxGeometry>
        </mxCell>
        <mxCell id="t_jVDYr7bIxkMFcBrNz5-49" value="(1,N)" style="text;strokeColor=none;fillColor=none;spacingLeft=4;spacingRight=4;overflow=hidden;rotatable=0;points=[[0,0.5],[1,0.5]];portConstraint=eastwest;fontSize=12;whiteSpace=wrap;html=1;" vertex="1" parent="1">
          <mxGeometry x="240" y="315" width="70" height="30" as="geometry" />
        </mxCell>
        <mxCell id="t_jVDYr7bIxkMFcBrNz5-52" style="edgeStyle=orthogonalEdgeStyle;rounded=0;orthogonalLoop=1;jettySize=auto;html=1;endArrow=none;endFill=0;startArrow=none;startFill=0;" edge="1" parent="1" source="t_jVDYr7bIxkMFcBrNz5-46" target="t_jVDYr7bIxkMFcBrNz5-47">
          <mxGeometry relative="1" as="geometry">
            <Array as="points">
              <mxPoint x="130" y="338" />
              <mxPoint x="130" y="338" />
            </Array>
            <mxPoint x="170" y="242.5" as="sourcePoint" />
            <mxPoint x="210" y="287.5" as="targetPoint" />
          </mxGeometry>
        </mxCell>
        <mxCell id="t_jVDYr7bIxkMFcBrNz5-53" value="(1,1)" style="text;strokeColor=none;fillColor=none;spacingLeft=4;spacingRight=4;overflow=hidden;rotatable=0;points=[[0,0.5],[1,0.5]];portConstraint=eastwest;fontSize=12;whiteSpace=wrap;html=1;" vertex="1" parent="1">
          <mxGeometry x="135" y="315" width="70" height="30" as="geometry" />
        </mxCell>
        <mxCell id="t_jVDYr7bIxkMFcBrNz5-54" value="id" style="ellipse;whiteSpace=wrap;html=1;align=center;fontStyle=4;" vertex="1" parent="1">
          <mxGeometry x="20" y="380" width="30" height="20" as="geometry" />
        </mxCell>
        <mxCell id="t_jVDYr7bIxkMFcBrNz5-55" value="" style="endArrow=none;html=1;rounded=0;exitX=0.5;exitY=1;exitDx=0;exitDy=0;entryX=0.5;entryY=0;entryDx=0;entryDy=0;" edge="1" parent="1" source="t_jVDYr7bIxkMFcBrNz5-46" target="t_jVDYr7bIxkMFcBrNz5-54">
          <mxGeometry relative="1" as="geometry">
            <mxPoint x="150" y="390" as="sourcePoint" />
            <mxPoint x="120" y="420" as="targetPoint" />
            <Array as="points">
              <mxPoint x="80" y="370" />
            </Array>
          </mxGeometry>
        </mxCell>
        <mxCell id="t_jVDYr7bIxkMFcBrNz5-56" value="interest_id" style="ellipse;whiteSpace=wrap;html=1;align=center;fontStyle=4;" vertex="1" parent="1">
          <mxGeometry x="120" y="380" width="80" height="20" as="geometry" />
        </mxCell>
        <mxCell id="t_jVDYr7bIxkMFcBrNz5-57" value="" style="endArrow=none;html=1;rounded=0;exitX=0.5;exitY=1;exitDx=0;exitDy=0;entryX=0.5;entryY=0;entryDx=0;entryDy=0;" edge="1" parent="1" source="t_jVDYr7bIxkMFcBrNz5-47" target="t_jVDYr7bIxkMFcBrNz5-56">
          <mxGeometry relative="1" as="geometry">
            <mxPoint x="90" y="369" as="sourcePoint" />
            <mxPoint x="90" y="390" as="targetPoint" />
            <Array as="points">
              <mxPoint x="205" y="370" />
            </Array>
          </mxGeometry>
        </mxCell>
        <mxCell id="t_jVDYr7bIxkMFcBrNz5-58" value="name" style="ellipse;whiteSpace=wrap;html=1;align=center;" vertex="1" parent="1">
          <mxGeometry x="60" y="380" width="40" height="20" as="geometry" />
        </mxCell>
        <mxCell id="t_jVDYr7bIxkMFcBrNz5-59" value="" style="endArrow=none;html=1;rounded=0;exitX=0.5;exitY=1;exitDx=0;exitDy=0;entryX=0.5;entryY=0;entryDx=0;entryDy=0;" edge="1" parent="1" target="t_jVDYr7bIxkMFcBrNz5-58">
          <mxGeometry relative="1" as="geometry">
            <mxPoint x="80" y="358.75" as="sourcePoint" />
            <mxPoint x="30" y="379.75" as="targetPoint" />
            <Array as="points">
              <mxPoint x="80" y="369.75" />
            </Array>
          </mxGeometry>
        </mxCell>
        <mxCell id="t_jVDYr7bIxkMFcBrNz5-60" value="user_id" style="ellipse;whiteSpace=wrap;html=1;align=center;fontStyle=4;" vertex="1" parent="1">
          <mxGeometry x="210" y="380" width="60" height="20" as="geometry" />
        </mxCell>
        <mxCell id="t_jVDYr7bIxkMFcBrNz5-61" value="" style="endArrow=none;html=1;rounded=0;exitX=0.5;exitY=1;exitDx=0;exitDy=0;entryX=0.5;entryY=0;entryDx=0;entryDy=0;" edge="1" parent="1" source="t_jVDYr7bIxkMFcBrNz5-47" target="t_jVDYr7bIxkMFcBrNz5-60">
          <mxGeometry relative="1" as="geometry">
            <mxPoint x="215" y="370" as="sourcePoint" />
            <mxPoint x="170" y="390" as="targetPoint" />
            <Array as="points">
              <mxPoint x="205" y="370" />
            </Array>
          </mxGeometry>
        </mxCell>
        <mxCell id="t_jVDYr7bIxkMFcBrNz5-36" value="to_whom" style="ellipse;whiteSpace=wrap;html=1;align=center;" vertex="1" parent="1">
          <mxGeometry x="290" y="460" width="60" height="20" as="geometry" />
        </mxCell>
        <mxCell id="t_jVDYr7bIxkMFcBrNz5-64" value="" style="endArrow=none;html=1;rounded=0;entryX=0.5;entryY=0;entryDx=0;entryDy=0;exitX=0.5;exitY=1;exitDx=0;exitDy=0;" edge="1" parent="1" target="t_jVDYr7bIxkMFcBrNz5-42">
          <mxGeometry relative="1" as="geometry">
            <mxPoint x="320" y="440" as="sourcePoint" />
            <mxPoint x="230" y="470" as="targetPoint" />
            <Array as="points">
              <mxPoint x="320" y="450" />
            </Array>
          </mxGeometry>
        </mxCell>
        <mxCell id="t_jVDYr7bIxkMFcBrNz5-65" value="" style="endArrow=none;html=1;rounded=0;entryX=0.5;entryY=0;entryDx=0;entryDy=0;exitX=0.5;exitY=1;exitDx=0;exitDy=0;" edge="1" parent="1" target="t_jVDYr7bIxkMFcBrNz5-38">
          <mxGeometry relative="1" as="geometry">
            <mxPoint x="320" y="440" as="sourcePoint" />
            <mxPoint x="230" y="470" as="targetPoint" />
            <Array as="points">
              <mxPoint x="320" y="450" />
            </Array>
          </mxGeometry>
        </mxCell>
        <mxCell id="t_jVDYr7bIxkMFcBrNz5-66" value="" style="endArrow=none;html=1;rounded=0;entryX=0.5;entryY=0;entryDx=0;entryDy=0;exitX=0.5;exitY=1;exitDx=0;exitDy=0;" edge="1" parent="1" target="t_jVDYr7bIxkMFcBrNz5-36">
          <mxGeometry relative="1" as="geometry">
            <mxPoint x="320" y="440" as="sourcePoint" />
            <mxPoint x="230" y="470" as="targetPoint" />
            <Array as="points">
              <mxPoint x="320" y="450" />
            </Array>
          </mxGeometry>
        </mxCell>
        <mxCell id="t_jVDYr7bIxkMFcBrNz5-67" value="" style="endArrow=none;html=1;rounded=0;entryX=0.5;entryY=0;entryDx=0;entryDy=0;exitX=0.5;exitY=1;exitDx=0;exitDy=0;" edge="1" parent="1" target="t_jVDYr7bIxkMFcBrNz5-34">
          <mxGeometry relative="1" as="geometry">
            <mxPoint x="320" y="440" as="sourcePoint" />
            <mxPoint x="230" y="470" as="targetPoint" />
            <Array as="points">
              <mxPoint x="320" y="450" />
            </Array>
          </mxGeometry>
        </mxCell>
        <mxCell id="t_jVDYr7bIxkMFcBrNz5-68" value="Comments" style="whiteSpace=wrap;html=1;align=center;" vertex="1" parent="1">
          <mxGeometry x="280" y="80" width="80" height="40" as="geometry" />
        </mxCell>
        <mxCell id="t_jVDYr7bIxkMFcBrNz5-69" style="edgeStyle=orthogonalEdgeStyle;rounded=0;orthogonalLoop=1;jettySize=auto;html=1;exitX=0.5;exitY=1;exitDx=0;exitDy=0;entryX=0.5;entryY=0;entryDx=0;entryDy=0;endArrow=ERzeroToMany;endFill=0;startArrow=ERmandOne;startFill=0;" edge="1" parent="1">
          <mxGeometry relative="1" as="geometry">
            <mxPoint x="320" y="240" as="sourcePoint" />
            <mxPoint x="320.42" y="120" as="targetPoint" />
            <Array as="points">
              <mxPoint x="320.42" y="190" />
            </Array>
          </mxGeometry>
        </mxCell>
        <mxCell id="t_jVDYr7bIxkMFcBrNz5-72" value="who" style="ellipse;whiteSpace=wrap;html=1;align=center;" vertex="1" parent="1">
          <mxGeometry x="390" y="30" width="40" height="20" as="geometry" />
        </mxCell>
        <mxCell id="t_jVDYr7bIxkMFcBrNz5-73" value="id" style="ellipse;whiteSpace=wrap;html=1;align=center;fontStyle=4;" vertex="1" parent="1">
          <mxGeometry x="290" y="30" width="30" height="20" as="geometry" />
        </mxCell>
        <mxCell id="t_jVDYr7bIxkMFcBrNz5-74" value="when" style="ellipse;whiteSpace=wrap;html=1;align=center;" vertex="1" parent="1">
          <mxGeometry x="230" y="30" width="50" height="20" as="geometry" />
        </mxCell>
        <mxCell id="t_jVDYr7bIxkMFcBrNz5-75" value="content" style="ellipse;whiteSpace=wrap;html=1;align=center;" vertex="1" parent="1">
          <mxGeometry x="170" y="30" width="50" height="20" as="geometry" />
        </mxCell>
        <mxCell id="t_jVDYr7bIxkMFcBrNz5-76" value="post_id" style="ellipse;whiteSpace=wrap;html=1;align=center;" vertex="1" parent="1">
          <mxGeometry x="330" y="30" width="50" height="20" as="geometry" />
        </mxCell>
        <mxCell id="t_jVDYr7bIxkMFcBrNz5-77" value="" style="endArrow=none;html=1;rounded=0;entryX=0.5;entryY=1;entryDx=0;entryDy=0;exitX=0.5;exitY=0;exitDx=0;exitDy=0;" edge="1" parent="1" source="t_jVDYr7bIxkMFcBrNz5-68" target="t_jVDYr7bIxkMFcBrNz5-74">
          <mxGeometry relative="1" as="geometry">
            <mxPoint x="330" y="50" as="sourcePoint" />
            <mxPoint x="240" y="80" as="targetPoint" />
            <Array as="points">
              <mxPoint x="330" y="60" />
            </Array>
          </mxGeometry>
        </mxCell>
        <mxCell id="t_jVDYr7bIxkMFcBrNz5-78" value="" style="endArrow=none;html=1;rounded=0;entryX=0.5;entryY=1;entryDx=0;entryDy=0;exitX=0.5;exitY=0;exitDx=0;exitDy=0;" edge="1" parent="1" source="t_jVDYr7bIxkMFcBrNz5-68" target="t_jVDYr7bIxkMFcBrNz5-75">
          <mxGeometry relative="1" as="geometry">
            <mxPoint x="330" y="50" as="sourcePoint" />
            <mxPoint x="170" y="80" as="targetPoint" />
            <Array as="points">
              <mxPoint x="330" y="60" />
            </Array>
          </mxGeometry>
        </mxCell>
        <mxCell id="t_jVDYr7bIxkMFcBrNz5-79" value="" style="endArrow=none;html=1;rounded=0;entryX=0.5;entryY=1;entryDx=0;entryDy=0;exitX=0.5;exitY=0;exitDx=0;exitDy=0;" edge="1" parent="1" source="t_jVDYr7bIxkMFcBrNz5-68" target="t_jVDYr7bIxkMFcBrNz5-73">
          <mxGeometry relative="1" as="geometry">
            <mxPoint x="330" y="50" as="sourcePoint" />
            <mxPoint x="310" y="80" as="targetPoint" />
            <Array as="points">
              <mxPoint x="330" y="60" />
            </Array>
          </mxGeometry>
        </mxCell>
        <mxCell id="t_jVDYr7bIxkMFcBrNz5-80" value="" style="endArrow=none;html=1;rounded=0;entryX=0.5;entryY=1;entryDx=0;entryDy=0;exitX=0.5;exitY=0;exitDx=0;exitDy=0;" edge="1" parent="1" source="t_jVDYr7bIxkMFcBrNz5-68" target="t_jVDYr7bIxkMFcBrNz5-76">
          <mxGeometry relative="1" as="geometry">
            <mxPoint x="340" y="80" as="sourcePoint" />
            <mxPoint x="380" y="80" as="targetPoint" />
            <Array as="points">
              <mxPoint x="330" y="60" />
            </Array>
          </mxGeometry>
        </mxCell>
        <mxCell id="t_jVDYr7bIxkMFcBrNz5-81" value="" style="endArrow=none;html=1;rounded=0;entryX=0.5;entryY=1;entryDx=0;entryDy=0;exitX=0.5;exitY=0;exitDx=0;exitDy=0;" edge="1" parent="1" source="t_jVDYr7bIxkMFcBrNz5-68" target="t_jVDYr7bIxkMFcBrNz5-72">
          <mxGeometry relative="1" as="geometry">
            <mxPoint x="330" y="50" as="sourcePoint" />
            <mxPoint x="450" y="80" as="targetPoint" />
            <Array as="points">
              <mxPoint x="330" y="60" />
            </Array>
          </mxGeometry>
        </mxCell>
        <mxCell id="t_jVDYr7bIxkMFcBrNz5-88" value="picture" style="ellipse;whiteSpace=wrap;html=1;align=center;" vertex="1" parent="1">
          <mxGeometry x="660" y="40" width="50" height="20" as="geometry" />
        </mxCell>
        <mxCell id="t_jVDYr7bIxkMFcBrNz5-89" value="id" style="ellipse;whiteSpace=wrap;html=1;align=center;fontStyle=4;" vertex="1" parent="1">
          <mxGeometry x="560" y="40" width="30" height="20" as="geometry" />
        </mxCell>
        <mxCell id="t_jVDYr7bIxkMFcBrNz5-90" value="when" style="ellipse;whiteSpace=wrap;html=1;align=center;" vertex="1" parent="1">
          <mxGeometry x="500" y="40" width="50" height="20" as="geometry" />
        </mxCell>
        <mxCell id="t_jVDYr7bIxkMFcBrNz5-91" value="content" style="ellipse;whiteSpace=wrap;html=1;align=center;" vertex="1" parent="1">
          <mxGeometry x="440" y="40" width="50" height="20" as="geometry" />
        </mxCell>
        <mxCell id="t_jVDYr7bIxkMFcBrNz5-92" value="user_id" style="ellipse;whiteSpace=wrap;html=1;align=center;" vertex="1" parent="1">
          <mxGeometry x="600" y="40" width="50" height="20" as="geometry" />
        </mxCell>
        <mxCell id="t_jVDYr7bIxkMFcBrNz5-93" value="" style="endArrow=none;html=1;rounded=0;entryX=0.5;entryY=1;entryDx=0;entryDy=0;exitX=0.5;exitY=0;exitDx=0;exitDy=0;" edge="1" parent="1" target="t_jVDYr7bIxkMFcBrNz5-90" source="t_jVDYr7bIxkMFcBrNz5-82">
          <mxGeometry relative="1" as="geometry">
            <mxPoint x="610" y="80" as="sourcePoint" />
            <mxPoint x="510" y="80" as="targetPoint" />
            <Array as="points">
              <mxPoint x="520" y="70" />
            </Array>
          </mxGeometry>
        </mxCell>
        <mxCell id="t_jVDYr7bIxkMFcBrNz5-94" value="" style="endArrow=none;html=1;rounded=0;entryX=0.5;entryY=1;entryDx=0;entryDy=0;exitX=0.5;exitY=0;exitDx=0;exitDy=0;" edge="1" parent="1" target="t_jVDYr7bIxkMFcBrNz5-91" source="t_jVDYr7bIxkMFcBrNz5-82">
          <mxGeometry relative="1" as="geometry">
            <mxPoint x="610" y="80" as="sourcePoint" />
            <mxPoint x="440" y="80" as="targetPoint" />
            <Array as="points">
              <mxPoint x="520" y="70" />
            </Array>
          </mxGeometry>
        </mxCell>
        <mxCell id="t_jVDYr7bIxkMFcBrNz5-95" value="" style="endArrow=none;html=1;rounded=0;entryX=0.5;entryY=1;entryDx=0;entryDy=0;exitX=0.5;exitY=0;exitDx=0;exitDy=0;" edge="1" parent="1" target="t_jVDYr7bIxkMFcBrNz5-89" source="t_jVDYr7bIxkMFcBrNz5-82">
          <mxGeometry relative="1" as="geometry">
            <mxPoint x="610" y="80" as="sourcePoint" />
            <mxPoint x="580" y="80" as="targetPoint" />
            <Array as="points">
              <mxPoint x="520" y="70" />
            </Array>
          </mxGeometry>
        </mxCell>
        <mxCell id="t_jVDYr7bIxkMFcBrNz5-96" value="" style="endArrow=none;html=1;rounded=0;entryX=0.5;entryY=1;entryDx=0;entryDy=0;exitX=0.5;exitY=0;exitDx=0;exitDy=0;" edge="1" parent="1" target="t_jVDYr7bIxkMFcBrNz5-92" source="t_jVDYr7bIxkMFcBrNz5-82">
          <mxGeometry relative="1" as="geometry">
            <mxPoint x="610" y="80" as="sourcePoint" />
            <mxPoint x="650" y="80" as="targetPoint" />
            <Array as="points">
              <mxPoint x="520" y="70" />
            </Array>
          </mxGeometry>
        </mxCell>
        <mxCell id="t_jVDYr7bIxkMFcBrNz5-97" value="" style="endArrow=none;html=1;rounded=0;entryX=0.5;entryY=1;entryDx=0;entryDy=0;exitX=0.5;exitY=0;exitDx=0;exitDy=0;" edge="1" parent="1" target="t_jVDYr7bIxkMFcBrNz5-88" source="t_jVDYr7bIxkMFcBrNz5-82">
          <mxGeometry relative="1" as="geometry">
            <mxPoint x="610" y="80" as="sourcePoint" />
            <mxPoint x="720" y="80" as="targetPoint" />
            <Array as="points">
              <mxPoint x="520" y="70" />
            </Array>
          </mxGeometry>
        </mxCell>
        <mxCell id="t_jVDYr7bIxkMFcBrNz5-98" value="" style="endArrow=ERzeroToMany;startArrow=ERmandOne;html=1;rounded=0;exitX=0;exitY=0.5;exitDx=0;exitDy=0;entryX=1;entryY=0.5;entryDx=0;entryDy=0;" edge="1" parent="1" target="t_jVDYr7bIxkMFcBrNz5-82">
          <mxGeometry width="50" height="50" relative="1" as="geometry">
            <mxPoint x="519.9999999999998" y="100" as="sourcePoint" />
            <mxPoint x="380" y="100" as="targetPoint" />
            <Array as="points" />
          </mxGeometry>
        </mxCell>
        <mxCell id="t_jVDYr7bIxkMFcBrNz5-82" value="Posts" style="whiteSpace=wrap;html=1;align=center;" vertex="1" parent="1">
          <mxGeometry x="480" y="80" width="80" height="40" as="geometry" />
        </mxCell>
        <mxCell id="t_jVDYr7bIxkMFcBrNz5-99" value="" style="endArrow=ERzeroToMany;startArrow=ERmandOne;html=1;rounded=0;exitX=0.75;exitY=0;exitDx=0;exitDy=0;entryX=0;entryY=0.75;entryDx=0;entryDy=0;" edge="1" parent="1" source="t_jVDYr7bIxkMFcBrNz5-1" target="t_jVDYr7bIxkMFcBrNz5-82">
          <mxGeometry width="50" height="50" relative="1" as="geometry">
            <mxPoint x="490" y="110" as="sourcePoint" />
            <mxPoint x="390" y="110" as="targetPoint" />
            <Array as="points">
              <mxPoint x="340" y="160" />
              <mxPoint x="390" y="160" />
              <mxPoint x="390" y="110" />
            </Array>
          </mxGeometry>
        </mxCell>
        <mxCell id="t_jVDYr7bIxkMFcBrNz5-100" value="Groups" style="whiteSpace=wrap;html=1;align=center;" vertex="1" parent="1">
          <mxGeometry x="520" y="160" width="80" height="40" as="geometry" />
        </mxCell>
        <mxCell id="t_jVDYr7bIxkMFcBrNz5-102" value="Group Messages" style="whiteSpace=wrap;html=1;align=center;" vertex="1" parent="1">
          <mxGeometry x="535" y="480" width="80" height="40" as="geometry" />
        </mxCell>
        <mxCell id="t_jVDYr7bIxkMFcBrNz5-103" value="User Groups" style="shape=rhombus;perimeter=rhombusPerimeter;whiteSpace=wrap;html=1;align=center;" vertex="1" parent="1">
          <mxGeometry x="440" y="365" width="80" height="50" as="geometry" />
        </mxCell>
        <mxCell id="t_jVDYr7bIxkMFcBrNz5-105" style="edgeStyle=orthogonalEdgeStyle;rounded=0;orthogonalLoop=1;jettySize=auto;html=1;endArrow=none;endFill=0;startArrow=none;startFill=0;exitX=0;exitY=0.5;exitDx=0;exitDy=0;" edge="1" parent="1" source="t_jVDYr7bIxkMFcBrNz5-103">
          <mxGeometry relative="1" as="geometry">
            <Array as="points">
              <mxPoint x="410" y="390" />
              <mxPoint x="410" y="360" />
              <mxPoint x="350" y="360" />
            </Array>
            <mxPoint x="340" y="377.75" as="sourcePoint" />
            <mxPoint x="350" y="280" as="targetPoint" />
          </mxGeometry>
        </mxCell>
        <mxCell id="t_jVDYr7bIxkMFcBrNz5-106" style="edgeStyle=orthogonalEdgeStyle;rounded=0;orthogonalLoop=1;jettySize=auto;html=1;endArrow=none;endFill=0;startArrow=none;startFill=0;exitX=1;exitY=0.5;exitDx=0;exitDy=0;entryX=0.368;entryY=0.984;entryDx=0;entryDy=0;entryPerimeter=0;" edge="1" parent="1">
          <mxGeometry relative="1" as="geometry">
            <Array as="points">
              <mxPoint x="550" y="391" />
              <mxPoint x="550" y="360" />
            </Array>
            <mxPoint x="519.9999999999998" y="390.6399999999999" as="sourcePoint" />
            <mxPoint x="549.4399999999998" y="199.9999999999999" as="targetPoint" />
          </mxGeometry>
        </mxCell>
        <mxCell id="t_jVDYr7bIxkMFcBrNz5-107" style="edgeStyle=orthogonalEdgeStyle;rounded=0;orthogonalLoop=1;jettySize=auto;html=1;endArrow=ERzeroToMany;endFill=0;startArrow=ERmandOne;startFill=0;entryX=0;entryY=0.5;entryDx=0;entryDy=0;" edge="1" parent="1" source="t_jVDYr7bIxkMFcBrNz5-1" target="t_jVDYr7bIxkMFcBrNz5-102">
          <mxGeometry relative="1" as="geometry">
            <mxPoint x="337" y="290" as="sourcePoint" />
            <mxPoint x="560" y="550" as="targetPoint" />
            <Array as="points">
              <mxPoint x="337" y="380" />
              <mxPoint x="380" y="380" />
              <mxPoint x="380" y="420" />
              <mxPoint x="420" y="420" />
              <mxPoint x="420" y="500" />
            </Array>
          </mxGeometry>
        </mxCell>
        <mxCell id="t_jVDYr7bIxkMFcBrNz5-109" style="edgeStyle=orthogonalEdgeStyle;rounded=0;orthogonalLoop=1;jettySize=auto;html=1;endArrow=ERzeroToMany;endFill=0;startArrow=ERmandOne;startFill=0;" edge="1" parent="1" source="t_jVDYr7bIxkMFcBrNz5-100">
          <mxGeometry relative="1" as="geometry">
            <mxPoint x="574.6599999999997" y="238.7499999999999" as="sourcePoint" />
            <mxPoint x="575" y="480" as="targetPoint" />
            <Array as="points">
              <mxPoint x="575" y="280" />
              <mxPoint x="575" y="280" />
            </Array>
          </mxGeometry>
        </mxCell>
        <mxCell id="t_jVDYr7bIxkMFcBrNz5-111" value="(1,N)" style="text;strokeColor=none;fillColor=none;spacingLeft=4;spacingRight=4;overflow=hidden;rotatable=0;points=[[0,0.5],[1,0.5]];portConstraint=eastwest;fontSize=12;whiteSpace=wrap;html=1;" vertex="1" parent="1">
          <mxGeometry x="410" y="365" width="70" height="30" as="geometry" />
        </mxCell>
        <mxCell id="t_jVDYr7bIxkMFcBrNz5-112" value="(1,1)" style="text;strokeColor=none;fillColor=none;spacingLeft=4;spacingRight=4;overflow=hidden;rotatable=0;points=[[0,0.5],[1,0.5]];portConstraint=eastwest;fontSize=12;whiteSpace=wrap;html=1;" vertex="1" parent="1">
          <mxGeometry x="510" y="365" width="70" height="30" as="geometry" />
        </mxCell>
        <mxCell id="t_jVDYr7bIxkMFcBrNz5-115" value="group_id" style="ellipse;whiteSpace=wrap;html=1;align=center;fontStyle=4;" vertex="1" parent="1">
          <mxGeometry x="450" y="460" width="60" height="20" as="geometry" />
        </mxCell>
        <mxCell id="t_jVDYr7bIxkMFcBrNz5-116" value="user_id" style="ellipse;whiteSpace=wrap;html=1;align=center;fontStyle=4;" vertex="1" parent="1">
          <mxGeometry x="500" y="430" width="60" height="20" as="geometry" />
        </mxCell>
        <mxCell id="t_jVDYr7bIxkMFcBrNz5-117" value="" style="endArrow=none;html=1;rounded=0;exitX=0.5;exitY=1;exitDx=0;exitDy=0;entryX=0.5;entryY=0;entryDx=0;entryDy=0;" edge="1" parent="1" target="t_jVDYr7bIxkMFcBrNz5-115">
          <mxGeometry relative="1" as="geometry">
            <mxPoint x="480" y="415" as="sourcePoint" />
            <mxPoint x="430" y="436" as="targetPoint" />
            <Array as="points">
              <mxPoint x="480" y="426" />
            </Array>
          </mxGeometry>
        </mxCell>
        <mxCell id="t_jVDYr7bIxkMFcBrNz5-118" value="" style="endArrow=none;html=1;rounded=0;exitX=0.5;exitY=1;exitDx=0;exitDy=0;entryX=0;entryY=0.5;entryDx=0;entryDy=0;" edge="1" parent="1" source="t_jVDYr7bIxkMFcBrNz5-103" target="t_jVDYr7bIxkMFcBrNz5-116">
          <mxGeometry relative="1" as="geometry">
            <mxPoint x="490" y="425" as="sourcePoint" />
            <mxPoint x="490" y="470" as="targetPoint" />
            <Array as="points">
              <mxPoint x="480" y="440" />
            </Array>
          </mxGeometry>
        </mxCell>
        <mxCell id="t_jVDYr7bIxkMFcBrNz5-119" value="id" style="ellipse;whiteSpace=wrap;html=1;align=center;fontStyle=4;" vertex="1" parent="1">
          <mxGeometry x="640" y="140" width="40" height="20" as="geometry" />
        </mxCell>
        <mxCell id="t_jVDYr7bIxkMFcBrNz5-121" value="name" style="ellipse;whiteSpace=wrap;html=1;align=center;" vertex="1" parent="1">
          <mxGeometry x="640" y="170" width="40" height="20" as="geometry" />
        </mxCell>
        <mxCell id="t_jVDYr7bIxkMFcBrNz5-126" value="reg date" style="ellipse;whiteSpace=wrap;html=1;align=center;" vertex="1" parent="1">
          <mxGeometry x="640" y="210" width="50" height="20" as="geometry" />
        </mxCell>
        <mxCell id="t_jVDYr7bIxkMFcBrNz5-127" value="" style="endArrow=none;html=1;rounded=0;entryX=0;entryY=0.5;entryDx=0;entryDy=0;" edge="1" parent="1" target="t_jVDYr7bIxkMFcBrNz5-119">
          <mxGeometry relative="1" as="geometry">
            <mxPoint x="600" y="181" as="sourcePoint" />
            <mxPoint x="560" y="260.91" as="targetPoint" />
            <Array as="points">
              <mxPoint x="620" y="181.25" />
            </Array>
          </mxGeometry>
        </mxCell>
        <mxCell id="t_jVDYr7bIxkMFcBrNz5-129" value="" style="endArrow=none;html=1;rounded=0;entryX=0;entryY=0.5;entryDx=0;entryDy=0;" edge="1" parent="1" target="t_jVDYr7bIxkMFcBrNz5-121">
          <mxGeometry relative="1" as="geometry">
            <mxPoint x="600" y="181" as="sourcePoint" />
            <mxPoint x="680" y="101.25" as="targetPoint" />
            <Array as="points">
              <mxPoint x="620" y="181.25" />
            </Array>
          </mxGeometry>
        </mxCell>
        <mxCell id="t_jVDYr7bIxkMFcBrNz5-134" value="" style="endArrow=none;html=1;rounded=0;entryX=0;entryY=0.5;entryDx=0;entryDy=0;" edge="1" parent="1" target="t_jVDYr7bIxkMFcBrNz5-126">
          <mxGeometry relative="1" as="geometry">
            <mxPoint x="600" y="181" as="sourcePoint" />
            <mxPoint x="730" y="151.25" as="targetPoint" />
            <Array as="points">
              <mxPoint x="620" y="181.25" />
            </Array>
          </mxGeometry>
        </mxCell>
        <mxCell id="t_jVDYr7bIxkMFcBrNz5-135" value="role" style="ellipse;whiteSpace=wrap;html=1;align=center;" vertex="1" parent="1">
          <mxGeometry x="420" y="270" width="30" height="20" as="geometry" />
        </mxCell>
        <mxCell id="t_jVDYr7bIxkMFcBrNz5-136" value="" style="endArrow=none;html=1;rounded=0;entryX=0;entryY=0.5;entryDx=0;entryDy=0;exitX=1;exitY=0.5;exitDx=0;exitDy=0;" edge="1" parent="1" source="t_jVDYr7bIxkMFcBrNz5-1" target="t_jVDYr7bIxkMFcBrNz5-135">
          <mxGeometry relative="1" as="geometry">
            <mxPoint x="370" y="270" as="sourcePoint" />
            <mxPoint x="430" y="260" as="targetPoint" />
            <Array as="points">
              <mxPoint x="400" y="260" />
            </Array>
          </mxGeometry>
        </mxCell>
        <mxCell id="t_jVDYr7bIxkMFcBrNz5-137" value="who" style="ellipse;whiteSpace=wrap;html=1;align=center;" vertex="1" parent="1">
          <mxGeometry x="650" y="370" width="40" height="20" as="geometry" />
        </mxCell>
        <mxCell id="t_jVDYr7bIxkMFcBrNz5-138" value="id" style="ellipse;whiteSpace=wrap;html=1;align=center;fontStyle=4;" vertex="1" parent="1">
          <mxGeometry x="650" y="430" width="25" height="20" as="geometry" />
        </mxCell>
        <mxCell id="t_jVDYr7bIxkMFcBrNz5-139" value="when" style="ellipse;whiteSpace=wrap;html=1;align=center;" vertex="1" parent="1">
          <mxGeometry x="650" y="460" width="40" height="20" as="geometry" />
        </mxCell>
        <mxCell id="t_jVDYr7bIxkMFcBrNz5-141" value="content" style="ellipse;whiteSpace=wrap;html=1;align=center;" vertex="1" parent="1">
          <mxGeometry x="650" y="490" width="50" height="20" as="geometry" />
        </mxCell>
        <mxCell id="t_jVDYr7bIxkMFcBrNz5-142" value="group_id" style="ellipse;whiteSpace=wrap;html=1;align=center;" vertex="1" parent="1">
          <mxGeometry x="650" y="400" width="60" height="20" as="geometry" />
        </mxCell>
        <mxCell id="t_jVDYr7bIxkMFcBrNz5-147" value="" style="endArrow=none;html=1;rounded=0;entryX=0;entryY=0.5;entryDx=0;entryDy=0;" edge="1" parent="1" target="t_jVDYr7bIxkMFcBrNz5-138">
          <mxGeometry relative="1" as="geometry">
            <mxPoint x="615" y="501" as="sourcePoint" />
            <mxPoint x="655" y="470" as="targetPoint" />
            <Array as="points">
              <mxPoint x="630" y="500" />
            </Array>
          </mxGeometry>
        </mxCell>
        <mxCell id="t_jVDYr7bIxkMFcBrNz5-148" value="" style="endArrow=none;html=1;rounded=0;entryX=0;entryY=0.5;entryDx=0;entryDy=0;" edge="1" parent="1" target="t_jVDYr7bIxkMFcBrNz5-139">
          <mxGeometry relative="1" as="geometry">
            <mxPoint x="615" y="501" as="sourcePoint" />
            <mxPoint x="655" y="500" as="targetPoint" />
            <Array as="points">
              <mxPoint x="630" y="500" />
            </Array>
          </mxGeometry>
        </mxCell>
        <mxCell id="t_jVDYr7bIxkMFcBrNz5-149" value="" style="endArrow=none;html=1;rounded=0;entryX=0;entryY=0.5;entryDx=0;entryDy=0;" edge="1" parent="1" target="t_jVDYr7bIxkMFcBrNz5-141">
          <mxGeometry relative="1" as="geometry">
            <mxPoint x="615" y="501" as="sourcePoint" />
            <mxPoint x="655" y="540" as="targetPoint" />
            <Array as="points">
              <mxPoint x="630" y="501" />
            </Array>
          </mxGeometry>
        </mxCell>
        <mxCell id="t_jVDYr7bIxkMFcBrNz5-150" value="" style="endArrow=none;html=1;rounded=0;entryX=0;entryY=0.5;entryDx=0;entryDy=0;" edge="1" parent="1" target="t_jVDYr7bIxkMFcBrNz5-142">
          <mxGeometry relative="1" as="geometry">
            <mxPoint x="615" y="501" as="sourcePoint" />
            <mxPoint x="650" y="450" as="targetPoint" />
            <Array as="points">
              <mxPoint x="630" y="500" />
            </Array>
          </mxGeometry>
        </mxCell>
        <mxCell id="t_jVDYr7bIxkMFcBrNz5-151" value="" style="endArrow=none;html=1;rounded=0;entryX=0;entryY=0.5;entryDx=0;entryDy=0;" edge="1" parent="1" target="t_jVDYr7bIxkMFcBrNz5-137">
          <mxGeometry relative="1" as="geometry">
            <mxPoint x="615" y="501" as="sourcePoint" />
            <mxPoint x="650" y="450" as="targetPoint" />
            <Array as="points">
              <mxPoint x="630" y="500" />
            </Array>
          </mxGeometry>
        </mxCell>
      </root>
    </mxGraphModel>
  </diagram>
</mxfile>
